<svg width="700" height="293" viewBox="0 0 700 293" fill="none" xmlns="http://www.w3.org/2000/svg">
<rect width="700" height="293" fill="#E5E5E5"/>
<path id="Vector 1" d="M1 181C306.6 176.2 375.667 132.333 372 111L395 181H611L671 79L699 260L243 292L32 246C32 246 13.1063 210.041 1 187" stroke="black"/>
<path id="Vector 2" d="M339 178C336.89 185.304 343.527 197.148 351.222 190.222C356.668 185.321 365.169 180.573 363.944 172C363.003 165.412 354.943 164.636 349.278 165.056C342.754 165.539 339.21 167.412 338.111 174.278C337.702 176.836 337.575 179.862 339 182" stroke="black" stroke-linecap="round" stroke-linejoin="round"/>
<path id="Vector 3" d="M147 228C160.066 236.996 175.082 245.056 190.833 247.5C199.626 248.864 204.804 249.889 212.778 245.444C219.131 241.903 222.811 236.566 226 229.833C228.311 224.956 230.377 219.723 230.944 214.333C231.47 209.338 231.381 204.365 234 200" stroke="black" stroke-linecap="round" stroke-linejoin="round"/>
<path id="Vector 4" d="M408 234C420.34 226.949 433.317 220.27 446.778 215.611C453.727 213.206 459.832 224.709 463.778 228.778C468.267 233.407 482.12 225.637 486.667 224.222C487.333 224.015 503.339 220.226 502.111 223.111C500.522 226.846 497.622 229.958 495.444 233.333C490.823 240.496 501.785 236.331 504.778 235.333C511.312 233.155 517.802 230.999 524.444 229.167C526.21 228.68 529.027 227.536 531 228C533.843 228.669 528.285 242 523 242" stroke="black" stroke-linecap="round" stroke-linejoin="round"/>
<rect id="Rectangle 2" x="455" width="100" height="100" fill="#C4C4C4"/>
</svg>
